<?xml version="1.0" encoding="UTF-8"?>
<svg width="400" height="300" viewBox="0 0 400 300" fill="none" xmlns="http://www.w3.org/2000/svg">
    <!-- Background Elements -->
    <circle cx="200" cy="150" r="120" fill="#F3E5F5" opacity="0.3"/>
    <circle cx="200" cy="150" r="80" fill="#E1BEE7" opacity="0.4"/>
    
    <!-- Lock Body -->
    <rect x="150" y="130" width="100" height="80" rx="10" fill="#9C27B0"/>
    
    <!-- Lock Top -->
    <path d="M170 130 V100 Q170 80 200 80 Q230 80 230 100 V130" 
          stroke="#7B1FA2" 
          stroke-width="20" 
          stroke-linecap="round"
          fill="none"/>
    
    <!-- Keyhole -->
    <circle cx="200" cy="160" r="10" fill="white"/>
    <rect x="195" y="160" width="10" height="20" fill="white"/>
    
    <!-- Reset Arrows -->
    <path d="M280 150 A50 50 0 1 1 280 149.9" 
          stroke="#4A148C" 
          stroke-width="8" 
          stroke-linecap="round"
          fill="none"/>
    
    <!-- Stars/Sparkles -->
    <path d="M120 100 L125 105 L120 110 L115 105 Z" fill="#CE93D8"/>
    <path d="M300 200 L305 205 L300 210 L295 205 Z" fill="#CE93D8"/>
    <path d="M150 220 L155 225 L150 230 L145 225 Z" fill="#CE93D8"/>
</svg>